<?xml version="1.0" encoding="UTF-8"?>
<svg width="192px" height="192px" viewBox="0 0 192 192" version="1.1" xmlns="http://www.w3.org/2000/svg" xmlns:xlink="http://www.w3.org/1999/xlink">
    <!-- Generator: Sketch 44.1 (41455) - http://www.bohemiancoding.com/sketch -->
    <title>freestyle-logo-header</title>
    <desc>Created with Sketch.</desc>
    <defs></defs>
    <g id="freestyle-ui" stroke="none" stroke-width="1" fill="none" fill-rule="evenodd">
        <g id="freestyle-logo-header" fill="#01C2C2">
            <polygon id="path" points="96.1384 0.0003 13.0004 48.0013 40.7124 64.0013 123.8494 16.0023"></polygon>
            <polygon id="path" opacity="0.6" points="13 144.0012 40.712 160.0002 40.712 64.0012 13 48.0012"></polygon>
            <polygon id="path" points="68.4247 80.0013 68.4247 112.0003 179.2767 48.0013 151.5647 32.0023"></polygon>
            <polygon id="path" points="151.5649 128.0005 96.1379 160.0005 68.4249 144.0015 123.8499 111.9995"></polygon>
            <polygon id="path" opacity="0.6" points="123.8505 80.0015 123.8495 111.9995 151.5645 128.0005 151.5625 64.0015"></polygon>
            <polygon id="path" opacity="0.6" points="68.4247 176.0016 96.1387 191.9986 96.1387 160.0006 68.4247 144.0016"></polygon>
            <polygon id="path" opacity="0.35" points="151.5631 64.0011 151.5651 128.0001 96.1381 160.0001 96.1381 191.9991 179.2771 144.0001 179.2771 48.0011"></polygon>
        </g>
    </g>
</svg>