<?xml version="1.0" encoding="UTF-8"?>
<svg width="52px" height="52px" viewBox="0 0 52 52" version="1.1" xmlns="http://www.w3.org/2000/svg" xmlns:xlink="http://www.w3.org/1999/xlink">
    <!-- Generator: Sketch 44.1 (41455) - http://www.bohemiancoding.com/sketch -->
    <title>freestyle-icon-library-kafka</title>
    <desc>Created with Sketch.</desc>
    <defs>
        <polygon id="path-1" points="26 2 46.7846097 14 46.7846097 38 26 50 5.21539031 38 5.21539031 14"></polygon>
    </defs>
    <g id="freestyle-ui" stroke="none" stroke-width="1" fill="none" fill-rule="evenodd">
        <g id="freestyle-icon-library-kafka">
            <g id="hexagon">
                <use fill="#01C2C2" fill-rule="evenodd" xlink:href="#path-1"></use>
                <path stroke="#058F97" stroke-width="2" d="M26,3.15470054 L6.21539031,14.5773503 L6.21539031,37.4226497 L26,48.8452995 L45.7846097,37.4226497 L45.7846097,14.5773503 L26,3.15470054 Z"></path>
            </g>
            <polyline id="hexagon" fill="#01C2C2" points="26 50 5.21539031 38 5.21539031 14 26 2 26 2"></polyline>
            <polyline id="opacity" fill="#FFFFFF" opacity="0.3" points="26 50 5.21539031 38 5.21539031 14 26 2 26 2"></polyline>
            <path d="M26,8 L26,44.5" id="line" stroke="#058F97" stroke-width="2" stroke-linecap="square"></path>
            <path d="M46.0102539,13.9960938 L26.0769043,25.9626465" id="line" stroke="#058F97" stroke-width="2" stroke-linecap="square"></path>
            <path d="M46.0246582,37.0974121 L26,26" id="line" stroke="#058F97" stroke-width="2" stroke-linecap="square"></path>
            <circle id="point" stroke="#058F97" stroke-width="2" fill="#FFFFFF" cx="26" cy="4" r="3"></circle>
            <circle id="point" stroke="#058F97" stroke-width="2" fill="#FFFFFF" cx="26" cy="26" r="3"></circle>
            <circle id="point" stroke="#058F97" stroke-width="2" fill="#FFFFFF" cx="46" cy="14" r="3"></circle>
            <circle id="point" stroke="#058F97" stroke-width="2" fill="#FFFFFF" cx="46" cy="37" r="3"></circle>
            <circle id="point" stroke="#058F97" stroke-width="2" fill="#FFFFFF" cx="26" cy="48" r="3"></circle>
        </g>
    </g>
</svg>