<?xml version="1.0" encoding="UTF-8"?>
<svg width="6109px" height="3949px" viewBox="0 0 6109 3949" version="1.1" xmlns="http://www.w3.org/2000/svg" xmlns:xlink="http://www.w3.org/1999/xlink">
    <!-- Generator: Sketch 44.1 (41455) - http://www.bohemiancoding.com/sketch -->
    <title>freestyle-background-jumbotron</title>
    <desc>Created with Sketch.</desc>
    <defs>
        <radialGradient cx="50%" cy="36.6376393%" fx="50%" fy="36.6376393%" r="37.3456489%" gradientTransform="translate(0.500000,0.366376),scale(0.545139,1.000000),rotate(0.000001),translate(-0.500000,-0.366376)" id="radialGradient-1">
            <stop stop-color="#102A44" offset="0%"></stop>
            <stop stop-color="#102A44" stop-opacity="0" offset="100%"></stop>
        </radialGradient>
        <polygon id="path-2" points="6365 3668 8568 3668 8568 4579.79722 7466.5 4868.94097 6365 4579.79722"></polygon>
    </defs>
    <g id="Page-1" stroke="none" stroke-width="1" fill="none" fill-rule="evenodd">
        <g id="header-background" transform="translate(-4413.000000, -2049.000000)">
            <g id="pattern" opacity="0.184782609" transform="translate(4797.000000, 1627.000000)" stroke-linecap="square" stroke="#FFFFFF">
                <g id="line" transform="translate(2669.500000, 2387.000000) rotate(-30.000000) translate(-2669.500000, -2387.000000) translate(433.000000, 923.000000)">
                    <path d="M0.5,1.5 L4472.11828,1.5"></path>
                    <path d="M0.5,196.5 L4472.11828,196.5"></path>
                    <path d="M0.5,391.5 L4472.11828,391.5"></path>
                    <path d="M0.5,586.5 L4472.11828,586.5"></path>
                    <path d="M0.5,781.5 L4472.11828,781.5"></path>
                    <path d="M0.5,976.5 L4472.11828,976.5"></path>
                    <path d="M0.5,1171.5 L4472.11828,1171.5"></path>
                    <path d="M0.5,1366.5 L4472.11828,1366.5"></path>
                    <path d="M0.5,1561.5 L4472.11828,1561.5"></path>
                    <path d="M0.5,1756.5 L4472.11828,1756.5"></path>
                    <path d="M0.5,1951.5 L4472.11828,1951.5"></path>
                    <path d="M0.5,2146.5 L4472.11828,2146.5"></path>
                    <path d="M0.5,2341.5 L4472.11828,2341.5"></path>
                    <path d="M0.5,2536.5 L4472.11828,2536.5"></path>
                    <path d="M0.5,2731.5 L4472.11828,2731.5"></path>
                    <path d="M0.5,2926.5 L4472.11828,2926.5"></path>
                </g>
                <g id="line" transform="translate(2669.500000, 2387.000000) rotate(30.000000) translate(-2669.500000, -2387.000000) translate(433.000000, 923.000000)">
                    <path d="M0.5,1.5 L4472.11828,1.5"></path>
                    <path d="M0.5,196.5 L4472.11828,196.5"></path>
                    <path d="M0.5,391.5 L4472.11828,391.5"></path>
                    <path d="M0.5,586.5 L4472.11828,586.5"></path>
                    <path d="M0.5,781.5 L4472.11828,781.5"></path>
                    <path d="M0.5,976.5 L4472.11828,976.5"></path>
                    <path d="M0.5,1171.5 L4472.11828,1171.5"></path>
                    <path d="M0.5,1366.5 L4472.11828,1366.5"></path>
                    <path d="M0.5,1561.5 L4472.11828,1561.5"></path>
                    <path d="M0.5,1756.5 L4472.11828,1756.5"></path>
                    <path d="M0.5,1951.5 L4472.11828,1951.5"></path>
                    <path d="M0.5,2146.5 L4472.11828,2146.5"></path>
                    <path d="M0.5,2341.5 L4472.11828,2341.5"></path>
                    <path d="M0.5,2536.5 L4472.11828,2536.5"></path>
                    <path d="M0.5,2731.5 L4472.11828,2731.5"></path>
                    <path d="M0.5,2926.5 L4472.11828,2926.5"></path>
                </g>
                <g id="line" transform="translate(2572.000000, 2386.500000) rotate(90.000000) translate(-2572.000000, -2386.500000) translate(335.500000, 922.500000)">
                    <path d="M0.5,1.5 L4472.11828,1.5"></path>
                    <path d="M0.5,196.5 L4472.11828,196.5"></path>
                    <path d="M0.5,391.5 L4472.11828,391.5"></path>
                    <path d="M0.5,586.5 L4472.11828,586.5"></path>
                    <path d="M0.5,781.5 L4472.11828,781.5"></path>
                    <path d="M0.5,976.5 L4472.11828,976.5"></path>
                    <path d="M0.5,1171.5 L4472.11828,1171.5"></path>
                    <path d="M0.5,1366.5 L4472.11828,1366.5"></path>
                    <path d="M0.5,1561.5 L4472.11828,1561.5"></path>
                    <path d="M0.5,1756.5 L4472.11828,1756.5"></path>
                    <path d="M0.5,1951.5 L4472.11828,1951.5"></path>
                    <path d="M0.5,2146.5 L4472.11828,2146.5"></path>
                    <path d="M0.5,2341.5 L4472.11828,2341.5"></path>
                    <path d="M0.5,2536.5 L4472.11828,2536.5"></path>
                    <path d="M0.5,2731.5 L4472.11828,2731.5"></path>
                    <path d="M0.5,2926.5 L4472.11828,2926.5"></path>
                </g>
            </g>
            <g id="pattern-dotted" opacity="0.184782609" stroke-linecap="square" stroke="#FFFFFF" stroke-dasharray="10,10,10">
                <g id="line" transform="translate(5338.750000, 4772.834936) rotate(-30.000000) translate(-5338.750000, -4772.834936) translate(865.750000, 1847.334936)">
                    <path d="M1,0.5 L8944.23655,0.5"></path>
                    <path d="M1,390.5 L8944.23655,390.5"></path>
                    <path d="M1,780.5 L8944.23655,780.5"></path>
                    <path d="M1,1170.5 L8944.23655,1170.5"></path>
                    <path d="M1,1560.5 L8944.23655,1560.5"></path>
                    <path d="M1,1950.5 L8944.23655,1950.5"></path>
                    <path d="M1,2340.5 L8944.23655,2340.5"></path>
                    <path d="M1,2730.5 L8944.23655,2730.5"></path>
                    <path d="M1,3120.5 L8944.23655,3120.5"></path>
                    <path d="M1,3510.5 L8944.23655,3510.5"></path>
                    <path d="M1,3900.5 L8944.23655,3900.5"></path>
                    <path d="M1,4290.5 L8944.23655,4290.5"></path>
                    <path d="M1,4680.5 L8944.23655,4680.5"></path>
                    <path d="M1,5070.5 L8944.23655,5070.5"></path>
                    <path d="M1,5460.5 L8944.23655,5460.5"></path>
                    <path d="M1,5850.5 L8944.23655,5850.5"></path>
                </g>
                <g id="line" transform="translate(5339.084936, 4771.584936) rotate(30.000000) translate(-5339.084936, -4771.584936) translate(863.584936, 1846.084936)">
                    <path d="M6,0.5 L8949.23655,0.5"></path>
                    <path d="M1,389.5 L8944.23655,389.5"></path>
                    <path d="M6,780.5 L8949.23655,780.5"></path>
                    <path d="M6,1170.5 L8949.23655,1170.5"></path>
                    <path d="M6,1560.5 L8949.23655,1560.5"></path>
                    <path d="M6,1950.5 L8949.23655,1950.5"></path>
                    <path d="M6,2340.5 L8949.23655,2340.5"></path>
                    <path d="M6,2730.5 L8949.23655,2730.5"></path>
                    <path d="M6,3120.5 L8949.23655,3120.5"></path>
                    <path d="M6,3510.5 L8949.23655,3510.5"></path>
                    <path d="M6,3900.5 L8949.23655,3900.5"></path>
                    <path d="M6,4290.5 L8949.23655,4290.5"></path>
                    <path d="M6,4680.5 L8949.23655,4680.5"></path>
                    <path d="M6,5070.5 L8949.23655,5070.5"></path>
                    <path d="M6,5460.5 L8949.23655,5460.5"></path>
                    <path d="M6,5850.5 L8949.23655,5850.5"></path>
                </g>
                <g id="line" transform="translate(5147.500000, 4773.500000) rotate(90.000000) translate(-5147.500000, -4773.500000) translate(674.000000, 1848.000000)">
                    <path d="M2,0.5 L8945.23655,0.5"></path>
                    <path d="M2,390.5 L8945.23655,390.5"></path>
                    <path d="M1,774.5 L8944.23655,774.5"></path>
                    <path d="M2,1173.5 L8945.23655,1173.5"></path>
                    <path d="M2,1560.5 L8945.23655,1560.5"></path>
                    <path d="M2,1950.5 L8945.23655,1950.5"></path>
                    <path d="M2,2340.5 L8945.23655,2340.5"></path>
                    <path d="M2,2730.5 L8945.23655,2730.5"></path>
                    <path d="M2,3120.5 L8945.23655,3120.5"></path>
                    <path d="M2,3510.5 L8945.23655,3510.5"></path>
                </g>
            </g>
            <g id="point" opacity="0.266021286" transform="translate(7069.000000, 3668.000000)" fill="#FFFFFF">
                <circle id="path" opacity="0.3" cx="8" cy="8" r="8"></circle>
                <circle id="path" cx="8" cy="8" r="4"></circle>
            </g>
            <g id="point" opacity="0.266021286" transform="translate(7653.000000, 3555.000000)" fill="#FFFFFF">
                <circle id="path" opacity="0.3" cx="8" cy="8" r="8"></circle>
                <circle id="path" cx="8" cy="8" r="4"></circle>
            </g>
            <g id="point" opacity="0.266021286" transform="translate(7653.000000, 4006.000000)" fill="#FFFFFF">
                <circle id="path" opacity="0.3" cx="8" cy="8" r="8"></circle>
                <circle id="path" cx="8" cy="8" r="4"></circle>
            </g>
            <g id="point" opacity="0.266021286" transform="translate(8043.000000, 3780.000000)" fill="#FFFFFF">
                <circle id="path" opacity="0.3" cx="8" cy="8" r="8"></circle>
                <circle id="path" cx="8" cy="8" r="4"></circle>
            </g>
            <g id="point" opacity="0.266021286" transform="translate(7263.000000, 4006.000000)" fill="#FFFFFF">
                <circle id="path" opacity="0.3" cx="8" cy="8" r="8"></circle>
                <circle id="path" cx="8" cy="8" r="4"></circle>
            </g>
            <g id="point" opacity="0.266021286" transform="translate(6873.000000, 4006.000000)" fill="#FFFFFF">
                <circle id="path" opacity="0.3" cx="8" cy="8" r="8"></circle>
                <circle id="path" cx="8" cy="8" r="4"></circle>
            </g>
            <mask id="mask-3" fill="white">
                <use xlink:href="#path-2"></use>
            </mask>
            <use id="background-gradient" fill="url(#radialGradient-1)" xlink:href="#path-2"></use>
        </g>
    </g>
</svg>